<svg id="Layer_1" data-name="Layer 1" xmlns="http://www.w3.org/2000/svg" viewBox="0 0 1491.62 1092.43"><title>Anisa</title><path d="M140,665.18a561.41,561.41,0,0,1,108.41-3.13c18.7,1.3,37.8,1.16,57.05,2.68a460.34,460.34,0,0,1,55.6,8.18c17.6,3.54,49.2,9.69,54.92,11.15s8.87-2,13.19-8.61c4.8-7.32,11.14-13.44,16.11-20.63,8.62-12.46,15.68-26,24.1-38.54,10.34-15.43,22.1-30.26,31.43-46.34,18.62-32.11,39.8-62.86,58.57-95,8.59-14.69,19-28,27.68-42.6,10.2-17.24,20.71-34.45,32.15-50.9,19.68-28.31,36.67-59.2,54.69-88.54,18.74-30.51,37.2-62,54.56-93.36,8.9-16.07,15.85-33.08,25.35-48.86,8.89-14.77,19.21-28.53,26.93-44,2-4.06,4-14.48,10.09-15.06,10.29-1,5.47,11.06,3.81,15.91-6,17.64-13.69,34.77-17.77,53-1.7,7.61-2.58,15.21-5.27,22.57s-2.48,12.65-3.39,20.44c-1.17,9.92-5.46,19.21-7,29.14-1.53,10.15-2.09,20.34-4,30.45-3.21,16.53-4.44,32.73-7.84,49.18-4.13,20-7.2,40.59-9.71,60.82-8.81,70.89-19,141.75-27.85,212.72-8.78,70.66-16.2,141.19-15.42,212.65.16,15.33-4.38,33.32,5.69,46,11.39,14.3,24.16,27.58,35.34,42.13,22.41,29.17,38.45,61.87,51.59,96,12.48,32.45,23.28,67.48,25.64,102.45,2.05,30.19,5.65,76.16-25.53,94.09C759.39,1196.3,732,1164,721,1139.84c-14.17-31-20.45-65.33-23.67-99-3.43-35.9-6.08-71.64-7.62-107.72-.8-18.48-1.21-37-2.18-55.46-.47-9,1.15-20-.61-28.78-1.5-7.45-5.9-9-11.26-14.29-23.42-23.34-50.52-44.41-78.24-62.57-12.67-8.29-25.17-14.13-39-20-6.12-2.59-59.65-28.75-71.57-33.68-14-5.81-29.71-12.26-44.33-16.73-8.43-2.57-15.06-5.67-21.39.32-5.38,5.1-9,14.18-13.05,20.41-9.62,15-20.67,28.75-31,43.24-20.08,28.25-37.62,58.95-56,88.36C301,886.2,281.3,918.67,260.4,950.44c-19.84,30.16-38.52,60.35-59.91,89.28-9.6,13-20.65,22.56-33,32.89-5.2,4.36-33.67,28.54-41.81,20.57-8.56-8.38,21.16-18.41,26.35-21.16a57.65,57.65,0,0,0,15.87-11.87c5.83-6.08,12.83-10.3,18.35-16.76,20.81-24.38,37.59-51.88,54.53-78.9,38.6-61.55,80.59-121.41,117.36-184.1,8.57-14.62,19.3-27.31,28.46-41.49,4.12-6.39,8.9-12.25,13.13-18.55,2.58-3.84,14.61-19.32,14.63-23,0-7.22-55.31-14.67-63.24-16.23-9.4-1.85-18.67-3.22-28.2-4.4-16.11-2-31.63-3.83-47.88-4-19.48-.21-38.73-2.34-58.16-1.62-37.28,1.38-75.16.72-112.07,6.17-5.32.79-21.23,4.17-25.81,2-6.75-3.28,9.63-6.78,10.21-6.9C106.37,668.81,122.52,665.79,140,665.18ZM762.58,165.81c-.3-10.39-11.31,12.72-12.31,14.77-5.84,12-13.38,23.82-20.58,35.07-13,20.25-23.66,42-36.38,62.31-26.37,42.1-49.8,86.17-77.08,127.75-27.78,42.34-56.34,84.19-81.81,127.89-26.74,45.85-59,88.51-87.41,133.34-3.2,5-8.21,9.73-11.1,14.63s-4.36,4.83,1,7.88,27.95,9.85,40.22,14.45c25.25,9.48,50.27,21.51,74.69,33.05,24.14,11.41,48.21,23.14,69.47,39.38,9.83,7.51,20.09,14.47,30,21.86,10.21,7.62,18.65,17.5,28.76,25,11.75,8.72,6.16-11.48,6.08-19-.14-13.47-.6-27.15.51-40.54,1.09-13.17.36-26.45.69-39.65.36-14.87,2.9-29.05,2.76-44-.23-24.44,7-48.11,8.87-72.22,2.15-26.95,6.83-53.73,10.21-80.63,3.81-30.35,5.65-60.14,9.9-90.28,4.45-31.55,12.07-63.05,14.94-94.78,1.37-15.15,4.29-29.88,6.39-44.94,1.95-14,3.19-27.89,5.43-42C750.65,225.26,756.81,195.59,762.58,165.81Zm41.56,907.57c1.23-9.77-3-20.66-5.07-30.31-2.82-13.38-8.15-25.93-12.08-39A310.52,310.52,0,0,0,760.6,942.8a555,555,0,0,0-35.82-56c-6.62-9.14-14.24-17.27-21.73-25.68-9.56-10.71-5,2.4-5.37,10.85-.92,24,.64,48.86,2.12,72.85,1.54,24.94,1.68,49.84,5.52,74.57,7.19,46.43,6.66,100.71,38.33,139.33,16.51,20.13,42.57,20.15,54.85-3.93C810.29,1131.7,809.4,1098.11,804.14,1073.38Z" transform="translate(-77.36 -91.56)"/><path d="M1139.43,702.94a59.14,59.14,0,0,0-16.53,1.15,66.67,66.67,0,0,0-30.85,17.57c-11.74,11.88-36.72,39-22.15,55.25,13.51,15.11,47.38,10.81,64.82,6.24,24.29-6.36,45.69-20.38,65.88-34.81,11.15-8,18.8-8.2,32.26-6.08,14,2.21,26.38,4.51,40.6,4.7,13.65.18,26.82,2.81,40.58,2.21,16.42-.73,32.78,0,49.19-1.21,58.3-4.25,117.41-9.79,173.54-27a116,116,0,0,0,17-6.64c2.44-1.18,10.32-7.34,12.75-6.75,10.23,2.49-14.19,14.15-17.83,15.7-24.27,10.31-50.79,18.1-76.53,23.75-57.74,12.66-120,15-178.67,14-5.43-.1-10.52-.08-16-.56-6.77-.58-30.46-3.75-36.18-4.78-3-.54-16.87-2.18-15.08-2.14-22.53-.52-38.53,18.44-58.72,27.73-23.6,10.85-48.23,19.49-74.58,15.77-21.24-3-46.69-11.47-38.58-38,3.92-12.77,12.38-23.18,20-33.6,8.17-11.25,18.31-20.32,31.19-26.05,15-6.66,52.84-4.23,58.91-2.06,5.34,1.91,15.88,5.82,21,8.69,10,5.67,15.83,16.46,5.68,25.21-4.68,4-37,14.23-29,2.74,4.31-6.23,26.64-2.91,23.51-14.33-.94-3.45-10.93-7.57-14-9.44C1166,706.91,1143.73,703.16,1139.43,702.94Z" transform="translate(-77.36 -91.56)"/><path d="M752.37,774.15c-.73-9.83,2.23-19.46,2.87-29.23.67-10.36-.74-20.78,0-31.12.35-4.68.82-13.26,7.21-14.2,9.38-1.38,1.94,11.35,3.18,16.95,1.44,6.53,2.23,6.88,6.46,3.54,5.76-4.56,10.93-13.46,16.43-18.92,14.2-14.13,28.35-12,40.34,4.23,9.14,12.37,11.3,26.73,10.72,41.76-.32,8.29-.06,16.74-.82,25-.55,6.05-5,20.9,7,15.55,5-2.22,9.94-11,13.59-15.2,5.75-6.62,9.75-13.54,14.48-20.82,2.45-3.78,11.06-18,15.51-18.91,6.64-1.32,10.12,16.56,10.75,21,1.44,10-4.69,41,10.6,40.79,7.74-.11,15.38-9.19,19.46-15,1.75-2.5,6.81-18.29,9.78-12.55,1.24,2.39-8.71,17.91-10.3,20.39-3.67,5.7-8.53,11.26-14.56,14.58-19.14,10.54-25.35-7.52-26.35-23.62-.38-6,5.13-38.91-6.59-21.67-9,13.29-16.44,27-29.14,37.38-4.2,3.44-9.83,9.41-15.65,9.46-8.42.06-12.39-8.51-13.1-15.68-1.85-18.65,4.91-37.84,3-56.84-1.23-12.52-9.71-36-26.18-28.39-15.24,7.05-22.94,27.23-28.37,41.81-3.22,8.67-4.28,16.59-4.38,25.77-.1,8.47,2.69,23.61-.32,31.4-2.15,5.58-7.79,9.11-12.53,1.72C751.85,797.53,751.66,780.89,752.37,774.15Z" transform="translate(-77.36 -91.56)"/><path d="M1011.1,818.47c-12.05-1.38-23.93-.32-35.75-4.1-3.06-1-13.51-4.23-14.31-8.11-1.63-8,8.79-1.21,11.42-.22,13.81,5.22,58.75,8.88,59.38-13.19.34-12-8.28-14.38-16-20-8.7-6.31-15.47-12.75-25.22-18.1-14.78-8.11-43.77-26.29-33.59-46,11-21.23,44.45-22.46,64.73-23.86,9.21-.63,72.79-8.48,64.7,8.13-4.61,9.46-15.67-.21-23.75-.32a317.38,317.38,0,0,0-44.35,2.19c-11.74,1.49-62.53,6-49.93,28.65,6.22,11.18,21.42,18.2,31.62,24.68s17.58,14.8,26.65,21.7c10,7.58,20.14,19.62,14.13,33.59C1036.21,814.27,1021.68,817.66,1011.1,818.47Z" transform="translate(-77.36 -91.56)"/><path d="M972.5,680.06c-10.18-2.92-16-10.69-24.9-15.8-7.94-4.55-8.17-3.79-7,5.14.57,4.41,2.31,23.73-4.5,16.59-.51-.54-1.63-8.52-1.84-9.21-1.22-4-2.3-8.7-3.83-12.59-2.42-6.13-10.83-11.08-7.08-17.58,4.94-8.56,14.23,1.44,19.54,4.91,7.89,5.14,12.61,11.69,19.67,17.54C965,671.14,980.83,678.11,972.5,680.06Z" transform="translate(-77.36 -91.56)"/></svg>