<svg xmlns="http://www.w3.org/2000/svg" width="1278.89" height="914.418" viewBox="0 0 1278.89 914.418">
  <g id="anisa" transform="translate(6.057 6.001)">
    <path id="Path_1" data-name="Path 1" d="M129.1,565.323a463.675,463.675,0,0,1,89.538-2.585c15.445,1.074,31.22.958,47.118,2.213a380.216,380.216,0,0,1,45.921,6.756c14.536,2.924,40.635,8,45.359,9.209s7.326-1.652,10.894-7.111c3.964-6.046,9.2-11.1,13.306-17.039,7.119-10.291,12.95-21.474,19.9-31.831,8.54-12.744,18.253-24.992,25.959-38.273,15.379-26.52,32.871-51.917,48.374-78.462,7.095-12.133,15.693-23.126,22.861-35.184,8.424-14.239,17.1-28.453,26.553-42.039,16.254-23.382,30.286-48.894,45.169-73.127,15.478-25.2,30.724-51.207,45.062-77.108,7.351-13.273,13.091-27.321,20.937-40.354,7.343-12.2,15.866-23.563,22.242-36.34,1.652-3.353,3.3-11.959,8.333-12.438,8.5-.826,4.518,9.135,3.147,13.14-4.955,14.569-11.307,28.717-14.677,43.774-1.4,6.285-2.131,12.562-4.353,18.641s-2.048,10.448-2.8,16.882c-.966,8.193-4.51,15.866-5.781,24.067-1.264,8.383-1.726,16.8-3.3,25.149-2.651,13.652-3.667,27.032-6.475,40.619-3.411,16.518-5.947,33.524-8.02,50.232-7.276,58.549-15.693,117.074-23,175.689-7.252,58.359-13.38,116.611-12.736,175.631.132,12.661-3.618,27.52,4.7,37.992,9.407,11.811,19.954,22.779,29.188,34.8,18.509,24.092,31.756,51.1,42.609,79.288,10.307,26.8,19.227,55.733,21.177,84.615,1.693,24.934,4.666,62.9-21.086,77.711-24.554,14.148-47.176-12.529-56.261-32.483-11.7-25.6-16.89-53.957-19.55-81.766-2.833-29.65-5.021-59.169-6.293-88.968-.661-15.263-1-30.559-1.8-45.805-.388-7.433.95-16.518-.5-23.77-1.239-6.153-4.873-7.433-9.3-11.8-19.343-19.277-41.725-36.679-64.62-51.678-10.464-6.847-20.788-11.67-32.211-16.518-5.055-2.139-49.266-23.745-59.111-27.817-11.563-4.8-24.538-10.126-36.613-13.818-6.963-2.123-12.438-4.683-17.666.264-4.444,4.212-7.433,11.712-10.778,16.857-7.945,12.389-17.072,23.745-25.6,35.713-16.584,23.332-31.071,48.688-46.251,72.978-16.584,26.644-32.855,53.462-50.117,79.7-16.386,24.91-31.814,49.844-49.481,73.738C171.128,885.4,162,893.295,151.8,901.827c-4.295,3.6-27.809,23.572-34.532,16.989-7.07-6.921,17.476-15.205,21.763-17.476a47.612,47.612,0,0,0,13.107-9.8c4.815-5.021,10.6-8.507,15.156-13.842,17.187-20.136,31.046-42.849,45.037-65.165,31.88-50.835,66.561-100.275,96.93-152.052,7.078-12.075,15.94-22.556,23.506-34.267,3.4-5.278,7.351-10.117,10.844-15.321,2.131-3.172,12.067-15.957,12.083-19,0-5.963-45.681-12.116-52.231-13.4-7.764-1.528-15.42-2.659-23.291-3.634-13.306-1.652-26.124-3.163-39.545-3.3-16.089-.173-31.988-1.932-48.035-1.338-30.79,1.14-62.076.595-92.561,5.1-4.394.653-17.534,3.444-21.317,1.652-5.575-2.709,7.954-5.6,8.433-5.7C101.322,568.321,114.66,565.827,129.1,565.323ZM643.3,152.885c-.248-8.581-9.341,10.506-10.167,12.2-4.823,9.911-11.051,19.673-17,28.965-10.737,16.725-19.541,34.688-30.047,51.463-21.78,34.771-41.131,71.169-63.662,105.511-22.944,34.969-46.532,69.534-67.568,105.627-22.085,37.868-48.729,73.1-72.193,110.128-2.643,4.13-6.781,8.036-9.168,12.083s-3.6,3.989.826,6.508,23.084,8.135,33.218,11.935c20.854,7.83,41.519,17.766,61.688,27.3,19.938,9.424,39.817,19.112,57.376,32.525,8.119,6.2,16.593,11.951,24.777,18.055,8.433,6.293,15.4,14.454,23.754,20.648,9.7,7.2,5.088-9.482,5.022-15.693-.116-11.125-.5-22.424.421-33.482.9-10.877.3-21.846.57-32.748.3-12.281,2.4-23.993,2.279-36.34-.19-20.185,5.781-39.735,7.326-59.648,1.776-22.259,5.641-44.377,8.433-66.594,3.147-25.067,4.666-49.671,8.177-74.564,3.675-26.058,9.969-52.074,12.339-78.28,1.132-12.513,3.543-24.678,5.278-37.117,1.611-11.563,2.635-23.035,4.485-34.689C633.444,201.985,638.532,177.48,643.3,152.885Zm34.325,749.578c1.016-8.069-2.478-17.063-4.187-25.034-2.329-11.051-6.731-21.416-9.977-32.211a256.456,256.456,0,0,0-21.8-50.6,458.414,458.414,0,0,0-29.584-46.251c-5.468-7.549-11.761-14.264-17.947-21.21-7.9-8.845-4.13,1.982-4.435,8.961-.76,19.822.529,40.354,1.751,60.168,1.272,20.6,1.388,41.164,4.559,61.589,5.938,38.348,5.5,83.178,31.657,115.075,13.636,16.626,35.159,16.642,45.3-3.246C682.7,950.63,681.967,922.888,677.622,902.463Z" transform="translate(-77.36 -91.56)" stroke="#000" stroke-width="12"/>
    <path id="Path_2" data-name="Path 2" d="M1124.35,701.566a48.844,48.844,0,0,0-13.652.95,55.075,55.075,0,0,0-25.48,14.511c-9.7,9.812-30.327,32.211-18.293,45.632,11.157,12.479,39.131,8.928,53.535,5.154,20.063-5.253,37.736-16.833,54.411-28.75,9.209-6.607,15.528-6.772,26.645-5.022,11.563,1.826,21.787,3.726,33.532,3.882,11.274.148,22.15,2.321,33.516,1.825,13.562-.6,27.074,0,40.627-1,48.151-3.51,96.971-8.085,143.33-22.3a95.819,95.819,0,0,0,14.04-5.484c2.016-.975,8.523-6.063,10.531-5.575,8.448,2.057-11.721,11.687-14.726,12.966-20.046,8.516-41.949,14.949-63.208,19.616-47.689,10.456-99.111,12.389-147.566,11.563-4.486-.083-8.689-.066-13.216-.462-5.591-.479-25.157-3.1-29.881-3.948-2.479-.446-13.934-1.8-12.455-1.768-18.608-.429-31.822,15.229-48.5,22.9-19.492,8.961-39.835,16.1-61.6,13.024-17.541-2.478-38.561-9.473-31.863-31.385,3.237-10.547,10.225-19.145,16.518-27.751,6.748-9.292,15.123-16.783,25.762-21.515,12.389-5.5,43.642-3.493,48.654-1.7,4.409,1.578,13.115,4.807,17.345,7.177,8.26,4.683,13.074,13.595,4.691,20.821-3.865,3.3-30.561,11.753-23.951,2.263,3.56-5.146,22-2.4,19.417-11.836-.777-2.849-9.027-6.251-11.563-7.8C1146.294,704.845,1127.9,701.748,1124.35,701.566Z" transform="translate(-212.367 -196.616)" stroke="#000" stroke-width="12"/>
    <path id="Path_3" data-name="Path 3" d="M752.313,759.81c-.6-8.119,1.842-16.072,2.371-24.141.553-8.556-.612-17.163,0-25.7.289-3.865.676-10.951,5.954-11.728,7.747-1.14,1.6,9.374,2.626,14,1.189,5.394,1.841,5.683,5.336,2.925,4.757-3.767,9.026-11.118,13.569-15.627,11.728-11.671,23.415-9.911,33.318,3.494,7.548,10.216,9.333,22.077,8.854,34.49-.264,6.847-.05,13.825-.677,20.648-.454,5-4.13,17.262,5.781,12.843,4.129-1.833,8.209-9.084,11.224-12.554,4.749-5.467,8.053-11.182,11.959-17.2,2.023-3.121,9.135-14.866,12.811-15.617,5.484-1.091,8.357,13.677,8.878,17.344,1.189,8.259-3.873,33.863,8.755,33.689,6.393-.091,12.7-7.59,16.073-12.389,1.445-2.064,5.624-15.1,8.077-10.364,1.024,1.974-7.194,14.792-8.507,16.84-3.031,4.708-7.045,9.3-12.025,12.042-15.809,8.706-20.938-6.211-21.764-19.508-.313-4.955,4.237-32.136-5.443-17.9-7.433,10.976-13.578,22.3-24.067,30.872-3.468,2.842-8.119,7.772-12.925,7.814-6.954.049-10.233-7.028-10.819-12.951-1.528-15.4,4.055-31.252,2.478-46.945-1.017-10.34-8.02-29.733-21.623-23.448-12.587,5.823-18.946,22.49-23.431,34.532a60.009,60.009,0,0,0-3.618,21.284c-.082,7,2.222,19.5-.264,25.935-1.775,4.608-6.434,7.524-10.348,1.419C751.883,779.121,751.726,765.377,752.313,759.81Z" transform="translate(-186.108 -196.047)" stroke="#000" stroke-width="12"/>
    <path id="Path_4" data-name="Path 4" d="M1001.318,794.8c-9.953-1.14-19.765-.264-29.527-3.386-2.527-.826-11.158-3.494-11.818-6.7-1.347-6.607,7.26-1,9.432-.182,11.406,4.311,48.522,7.334,49.043-10.894.28-9.912-6.839-11.877-13.215-16.519-7.186-5.211-12.776-10.53-20.829-14.949-12.208-6.7-36.15-21.714-27.743-37.992,9.085-17.535,36.712-18.55,53.462-19.707,7.606-.52,60.118-7,53.437,6.715-3.807,7.813-12.942-.173-19.615-.264a262.2,262.2,0,0,0-36.63,1.808c-9.7,1.231-51.644,4.956-41.237,23.663,5.138,9.233,17.69,15.032,26.115,20.383S1006.711,749,1014.2,754.7c8.26,6.26,16.634,16.2,11.671,27.743C1022.056,791.329,1010.056,794.129,1001.318,794.8Z" transform="translate(-212.724 -194.431)" stroke="#000" stroke-width="12"/>
    <path id="Path_5" data-name="Path 5" d="M963.778,673.649c-8.408-2.412-13.214-8.83-20.565-13.05-6.558-3.758-6.748-3.13-5.782,4.245.471,3.643,1.908,19.6-3.717,13.7-.421-.446-1.346-7.037-1.52-7.606-1.008-3.3-1.9-7.186-3.164-10.4-2-5.062-8.944-9.151-5.847-14.52,4.08-7.069,11.753,1.189,16.139,4.055,6.516,4.246,10.415,9.656,16.246,14.487C957.583,666.282,970.658,672.038,963.778,673.649Z" transform="translate(-250.564 -187.596)" stroke="#000" stroke-width="12"/>
  </g>
</svg>
