<?xml version="1.0" encoding="utf-8"?>
<!-- Generator: Adobe Illustrator 24.3.0, SVG Export Plug-In . SVG Version: 6.00 Build 0)  -->
<svg version="1.1" id="Layer_1" xmlns="http://www.w3.org/2000/svg" xmlns:xlink="http://www.w3.org/1999/xlink" x="0px" y="0px" viewBox="0 0 506 733" style="enable-background:new 0 0 506 733;" xml:space="preserve">
    <style type="text/css">
    .st0 {
        fill: #F8F8F8;
    }

    .st1 {
        fill: #E0E0E0;
    }

    .st2 {
        font-family: 'ProximaNova-Regular';
    }

    .st3 {
        font-size: 15px;
    }

    .st4 {
        fill: #3E3E3E;
    }

    .st5 {
        fill: #627166;
    }

    .st6 {
        fill: #ACBFB1;
    }

    .st7 {
        fill: #DBBFBF;
    }

    .st8 {
        fill: #DBD6BF;
    }

    .st9 {
        fill: #C7DBBF;
    }

    .st10 {
        fill: #CFE5D0;
    }

    .st11 {
        font-size: 14.9941px;
    }

    .st12 {
        font-size: 15.0016px;
    }

    .st13 {
        fill: #D6D6D6;
    }

    .st14 {
        fill: #B2B2B2;
    }

    .st15 {
        fill: #9F9F9F;
    }

    .st16 {
        fill: #FFFFFF;
    }

    .st17 {
        fill: #DEDDDD;
    }

    .st18 {
        fill: #C4C4C4;
    }
    </style>
    <path id="Rectangle_34-2" class="st0" d="M0,114h506v604c0,8.3-6.7,15-15,15l0,0H15c-8.3,0-15-6.7-15-15c0,0,0,0,0,0l0,0V114z" />
    <path id="Rectangle_35" class="st1" d="M54.5,136h160c14.6,0,26.5,11.8,26.5,26.5c0,0,0,0,0,0l0,0c0,14.6-11.8,26.5-26.5,26.5
	c0,0,0,0,0,0H28v-26.5C28,147.9,39.8,136,54.5,136C54.5,136,54.5,136,54.5,136z" />
    <text transform="matrix(1 0 0 1 57.4802 166.9999)" class="st2 st3">Tell me about yourself.</text>
    <path id="Rectangle_32-2" class="st4" d="M20,0h466c11,0,20,9,20,20v74c0,11-9,20-20,20H20c-11,0-20-9-20-20V20C0,9,9,0,20,0z" />
    <rect id="Rectangle_33-2" y="57" class="st5" width="506" height="57" />
    <path id="Rectangle_38" class="st6" d="M275,10h129c11,0,20,9,20,20v27H255V30C255,19,264,10,275,10z" />
    <path id="Rectangle_37" class="st5" d="M106,11h130c11,0,20,9,20,20v27H86V31C86,20,95,11,106,11z" />
    <circle id="Ellipse_14" class="st7" cx="23.5" cy="33.5" r="5.5" />
    <circle id="Ellipse_15" class="st8" cx="42.5" cy="33.5" r="5.5" />
    <circle id="Ellipse_16" class="st9" cx="61.5" cy="33.5" r="5.5" />
    <circle class="st5" cx="451.5" cy="598.8" r="26.3" />
    <g>
        <path id="Rectangle_5" class="st10" d="M201.6,261h250.6c14.1,0,25.6,11.5,25.6,25.6l0,0c0,14.1-11.5,25.6-25.6,25.6l0,0H201.6
		c-14.1,0-25.6-11.5-25.6-25.6l0,0l0,0C176,272.5,187.5,261,201.6,261z" />
        <text transform="matrix(1 0 0 1 203.507 290.9883)" class="st2 st11">Hello! My name is Anisa and I am a...</text>
    </g>
    <path id="Rectangle_6" class="st10" d="M135.4,323.4h109.4c14.1,0,25.6,11.5,25.6,25.6l0,0c0,14.1-11.5,25.6-25.6,25.6H135.4
	c-14.1,0-25.6-11.5-25.6-25.6l0,0C109.8,334.9,121.3,323.4,135.4,323.4z" />
    <text transform="matrix(1 0 0 1 137.1859 353.4257)" class="st2 st12">UI/UX designer</text>
    <path id="Rectangle_7" class="st10" d="M305.7,323.4h146.5c14.1,0,25.6,11.5,25.6,25.6l0,0c0,14.1-11.5,25.6-25.6,25.6H305.7
	c-14.1,0-25.6-11.5-25.6-25.6l0,0C280.1,334.9,291.6,323.4,305.7,323.4z" />
    <text transform="matrix(1 0 0 1 307.4994 353.4257)" class="st2 st12">Front-end developer</text>
    <path id="Rectangle_8" class="st10" d="M76.2,385.8h114.7c14.1,0,25.6,11.5,25.6,25.6l0,0c0,14.1-11.5,25.6-25.6,25.6H76.2
	c-14.1,0-25.6-11.5-25.6-25.6l0,0C50.6,397.3,62.1,385.8,76.2,385.8z" />
    <text transform="matrix(1 0 0 1 77.9362 415.8479)" class="st2 st12">Creative thinker</text>
    <path id="Rectangle_9" class="st10" d="M252.4,385.8h49.4c14.1,0,25.6,11.5,25.6,25.6l0,0c0,14.1-11.5,25.6-25.6,25.6l0,0h-49.4
	c-14.1,0-25.6-11.5-25.6-25.6l0,0l0,0C226.8,397.3,238.3,385.8,252.4,385.8z" />
    <text transform="matrix(1 0 0 1 254.1953 415.8484)" class="st2 st12">Writer</text>
    <path id="Rectangle_11" class="st10" d="M363.1,385.8h89.1c14.1,0,25.6,11.5,25.6,25.6l0,0c0,14.1-11.5,25.6-25.6,25.6l0,0h-89.1
	c-14.1,0-25.6-11.5-25.6-25.6l0,0l0,0C337.5,397.3,349,385.8,363.1,385.8z" />
    <text transform="matrix(1 0 0 1 364.8586 415.8484)" class="st2 st12">Video editor</text>
    <path id="Rectangle_14" class="st10" d="M112.7,448.3h101.5c14.1,0,25.6,11.5,25.6,25.6l0,0c0,14.1-11.5,25.6-25.6,25.6l0,0H112.7
	c-14.1,0-25.6-11.5-25.6-25.6l0,0l0,0C87.1,459.7,98.6,448.3,112.7,448.3z" />
    <text transform="matrix(1 0 0 1 114.4632 478.2706)" class="st2 st12">Photographer</text>
    <path id="Rectangle_10" class="st10" d="M275.9,448.3h60.9c14.1,0,25.6,11.5,25.6,25.6l0,0c0,14.1-11.5,25.6-25.6,25.6l0,0h-60.9
	c-14.1,0-25.6-11.5-25.6-25.6l0,0l0,0C250.3,459.7,261.8,448.3,275.9,448.3z" />
    <text transform="matrix(1 0 0 1 277.6426 478.2706)" class="st2 st12">Speaker</text>
    <path id="Rectangle_13" class="st10" d="M398.4,448.3h53.8c14.1,0,25.6,11.5,25.6,25.6l0,0c0,14.1-11.5,25.6-25.6,25.6l0,0h-53.8
	c-14.1,0-25.6-11.5-25.6-25.6l0,0l0,0C372.8,459.7,384.3,448.3,398.4,448.3z" />
    <path id="Rectangle_13_1_" class="st10" d="M404.4,510.7h53.8c14.1,0,25.6,11.5,25.6,25.6l0,0c0,14.1-11.5,25.6-25.6,25.6l0,0h-53.8
	c-14.1,0-25.6-11.5-25.6-25.6l0,0l0,0C378.8,522.2,390.3,510.7,404.4,510.7z" />
    <path id="Rectangle_13_2_" class="st10" d="M282.9,510.7h53.8c14.1,0,25.6,11.5,25.6,25.6l0,0c0,14.1-11.5,25.6-25.6,25.6l0,0h-53.8
	c-14.1,0-25.6-11.5-25.6-25.6l0,0l0,0C257.3,522.2,268.8,510.7,282.9,510.7z" />
    <text transform="matrix(1 0 0 1 400.1547 479.153)" class="st2 st12">Mentor</text>
    <path id="Rectangle_12" class="st10" d="M177.2,510.7h45c14.1,0,25.6,11.5,25.6,25.6l0,0c0,14.1-11.5,25.6-25.6,25.6l0,0h-45
	c-14.1,0-25.6-11.5-25.6-25.6l0,0l0,0C151.6,522.2,163.1,510.7,177.2,510.7z" />
    <text transform="matrix(1 0 0 1 179.8364 541.5752)" class="st2 st12">Baker</text>
    <text transform="matrix(1 0 0 1 284.5555 541.5752)" class="st2 st12">Explorer</text>
    <text transform="matrix(1 0 0 1 406.3341 541.5752)" class="st2 st12">Friend</text>
    <path id="Rectangle_50" class="st13" d="M143.5,645h325c11.3,0,20.5,9.2,20.5,20.5l0,0c0,11.3-9.2,20.5-20.5,20.5l0,0h-325
	c-11.3,0-20.5-9.2-20.5-20.5l0,0l0,0C123,654.2,132.2,645,143.5,645z" />
    <circle id="Ellipse_19" class="st14" cx="48.5" cy="665.5" r="20.5" />
    <circle id="Ellipse_20" class="st15" cx="95.5" cy="665.5" r="20.5" />
    <ellipse id="Ellipse_17" class="st14" cx="54.5" cy="226" rx="26.5" ry="26" />
    <g id="Group_2">
        <path id="Path_6" class="st16" d="M458.6,671.8l-14-14.5l4.2,17L458.6,671.8z" />
        <path id="Path_8" class="st17" d="M458.5,671.9l1.2,3.9l0.5-5l-15.6-13.7L458.5,671.9z" />
        <path id="Path_7" class="st16" d="M444.4,657l15.8,13.8l6.8-2.6L444.4,657z" />
        <path id="Path_9" class="st18" d="M459.7,675.7l-3.6-3.3l2.5-0.6" />
    </g>
</svg>