<?xml version="1.0" encoding="utf-8"?>
<!-- Generator: Adobe Illustrator 24.3.0, SVG Export Plug-In . SVG Version: 6.00 Build 0)  -->
<svg version="1.1" id="Layer_1" xmlns="http://www.w3.org/2000/svg" xmlns:xlink="http://www.w3.org/1999/xlink" x="0px" y="0px" viewBox="0 0 1004 626" style="enable-background:new 0 0 1004 626;" xml:space="preserve">
    <style type="text/css">
    .st0 {
        fill: #F8F8F8;
    }

    .st1 {
        fill: #CFE5D0;
    }

    .st2 {
        fill: #B2B2B2;
    }

    .st3 {
        fill: #E0E0E0;
    }

    .st4 {
        font-family: 'ProximaNova-Regular';
    }

    .st5 {
        font-size: 17px;
    }

    .st6 {
        fill: #3E3E3E;
    }

    .st7 {
        fill: #627166;
    }

    .st8 {
        fill: #ACBFB1;
    }

    .st9 {
        fill: #DBBFBF;
    }

    .st10 {
        fill: #DBD6BF;
    }

    .st11 {
        fill: #C7DBBF;
    }

    .st12 {
        fill: #D6D6D6;
    }

    .st13 {
        fill: #FFFFFF;
    }

    .st14 {
        fill: #DEDDDD;
    }

    .st15 {
        fill: #C4C4C4;
    }

    .st16 {
        fill: #9F9F9F;
    }
    </style>
    <rect id="Rectangle_17-2" y="114" class="st0" width="1004" height="512" />
    <path id="Rectangle_16_1_" class="st1" d="M791,437h54c16,0,29,13,29,29l0,0c0,16-13,29-29,29h-54c-16,0-29-13-29-29l0,0
		C762,450,775,437,791,437z" />
    <circle id="asker_bubble" class="st2" cx="81" cy="185" r="29" />
    <path id="Rectangle_4" class="st3" d="M159,156h177c16,0,29,13,29,29l0,0c0,16-13,29-29,29H159c-16,0-29-13-29-29l0,0
			C130,169,143,156,159,156z" />
    <text transform="matrix(1 0 0 1 162 190)" class="st4 st5">Tell me about yourself.</text>
    <path id="browser" class="st6" d="M20,0h964c11,0,20,9,20,20v74c0,11-9,20-20,20H20c-11,0-20-9-20-20V20C0,9,9,0,20,0z" />
    <rect id="browser_below" y="57" class="st7" width="1004" height="57" />
    <path id="browser_tab_1" class="st7" d="M106,11h130c11,0,20,9,20,20v27H86V31C86,20,95,11,106,11z" />
    <path id="browser_tab_2" class="st8" d="M276,11h129c11,0,20,9,20,20v27H256V31C256,20,265,11,276,11z" />
    <circle id="browser_button_1" class="st9" cx="23.5" cy="33.5" r="5.5" />
    <circle id="browser_button_2" class="st10" cx="42.5" cy="33.5" r="5.5" />
    <circle id="browser_button_3" class="st11" cx="61.5" cy="33.5" r="5.5" />
    <path id="Rectangle_5" class="st1" d="M561,233h284c16,0,29,13,29,29l0,0c0,16-13,29-29,29l0,0H561c-16,0-29-13-29-29l0,0l0,0
				C532,246,545,233,561,233z" />
    <text transform="matrix(1 0 0 1 563 267)" class="st4 st5">Hello! My name is Anisa and I am a...</text>
    <path id="Rectangle_6" class="st1" d="M289,301h124c16,0,29,13,29,29l0,0c0,16-13,29-29,29H289c-16,0-29-13-29-29l0,0
					C260,314,273,301,289,301z" />
    <text transform="matrix(1 0 0 1 291 335)" class="st4 st5">UI/UX designer</text>
    <path id="Rectangle_7" class="st1" d="M482,301h166c16,0,29,13,29,29l0,0c0,16-13,29-29,29H482c-16,0-29-13-29-29l0,0
						C453,314,466,301,482,301z" />
    <text transform="matrix(1 0 0 1 484 335)" class="st4 st5">Front-end developer</text>
    <path id="Rectangle_8" class="st1" d="M715,301h130c16,0,29,13,29,29l0,0c0,16-13,29-29,29H715c-16,0-29-13-29-29l0,0
							C686,314,699,301,715,301z" />
    <text transform="matrix(1 0 0 1 717 335)" class="st4 st5">Creative thinker</text>
    <path id="Rectangle_9" class="st1" d="M299,369h56c16,0,29,13,29,29l0,0c0,16-13,29-29,29l0,0h-56c-16,0-29-13-29-29l0,0l0,0
								C270,382,283,369,299,369z" />
    <text transform="matrix(1 0 0 1 301 403)" class="st4 st5">Writer</text>
    <path id="Rectangle_11" class="st1" d="M424,369h101c16,0,29,13,29,29l0,0c0,16-13,29-29,29l0,0H424c-16,0-29-13-29-29l0,0l0,0
									C395,382,408,369,424,369z" />
    <text transform="matrix(1 0 0 1 426 403)" class="st4 st5">Video editor</text>
    <path id="Rectangle_14" class="st1" d="M593,369h115c16,0,29,13,29,29l0,0c0,16-13,29-29,29l0,0H593c-16,0-29-13-29-29l0,0l0,0
										C564,382,577,369,593,369z" />
    <text transform="matrix(1 0 0 1 595 403)" class="st4 st5">Photographer</text>
    <path id="Rectangle_10" class="st1" d="M776,369h69c16,0,29,13,29,29l0,0c0,16-13,29-29,29l0,0h-69c-16,0-29-13-29-29l0,0l0,0
											C747,382,760,369,776,369z" />
    <text transform="matrix(1 0 0 1 778 403)" class="st4 st5">Speaker</text>
    <path id="Rectangle_13" class="st1" d="M403,437h61c16,0,29,13,29,29l0,0c0,16-13,29-29,29l0,0h-61c-16,0-29-13-29-29l0,0l0,0
												C374,450,387,437,403,437z" />
    <text transform="matrix(1 0 0 1 405 472)" class="st4 st5">Mentor</text>
    <path id="Rectangle_12" class="st1" d="M532,437h51c16,0,29,13,29,29l0,0c0,16-13,29-29,29l0,0h-51c-16,0-29-13-29-29l0,0l0,0
													C503,450,516,437,532,437z" />
    <text transform="matrix(1 0 0 1 535 472)" class="st4 st5">Baker</text>
    <path id="Rectangle_15" class="st1" d="M652,437h70c16,0,29,13,29,29l0,0c0,16-13,29-29,29l0,0h-70c-16,0-29-13-29-29l0,0l0,0
														C623,450,636,437,652,437z" />
    <text transform="matrix(1 0 0 1 654 472)" class="st4 st5">Explorer</text>
    <text transform="matrix(1 0 0 1 793 472)" class="st4 st5">Friend</text>
    <circle class="st7" cx="924" cy="262" r="29" />
    <path id="Rectangle_21" class="st12" d="M175.5,543h756c11.3,0,20.5,9.2,20.5,20.5l0,0l0,0c0,11.3-9.2,20.5-20.5,20.5l0,0h-756
															c-11.3,0-20.5-9.2-20.5-20.5l0,0l0,0C155,552.2,164.2,543,175.5,543L175.5,543z" />
    <g id="Group_1">
        <path id="Path_6" class="st13" d="M921.6,569.7l-14-14.5l4.2,17L921.6,569.7z" />
        <path id="Path_8" class="st14" d="M921.5,569.9l1.2,3.9l0.5-5l-15.7-13.7L921.5,569.9z" />
        <path id="Path_7" class="st13" d="M907.4,555l15.8,13.8l6.8-2.6L907.4,555z" />
        <path id="Path_9" class="st15" d="M922.7,573.7l-3.6-3.3l2.4-0.6" />
    </g>
    <circle id="Ellipse_4" class="st2" cx="72.5" cy="563.5" r="20.5" />
    <circle id="Ellipse_5" class="st16" cx="124.5" cy="563.5" r="20.5" />
</svg>