<svg xmlns="http://www.w3.org/2000/svg" xmlns:xlink="http://www.w3.org/1999/xlink" width="1350" height="741" viewBox="0 0 1350 741">
  <defs>
    <filter id="Rectangle_23" x="0" y="0" width="1350" height="133" filterUnits="userSpaceOnUse">
      <feOffset dy="3" input="SourceAlpha"/>
      <feGaussianBlur stdDeviation="3" result="blur"/>
      <feFlood flood-opacity="0.161"/>
      <feComposite operator="in" in2="blur"/>
      <feComposite in="SourceGraphic"/>
    </filter>
    <filter id="Rectangle_24" x="0" y="58" width="1350" height="75" filterUnits="userSpaceOnUse">
      <feOffset dy="3" input="SourceAlpha"/>
      <feGaussianBlur stdDeviation="3" result="blur-2"/>
      <feFlood flood-opacity="0.161"/>
      <feComposite operator="in" in2="blur-2"/>
      <feComposite in="SourceGraphic"/>
    </filter>
    <filter id="Rectangle_25" x="0" y="115" width="1350" height="626" filterUnits="userSpaceOnUse">
      <feOffset dy="3" input="SourceAlpha"/>
      <feGaussianBlur stdDeviation="3" result="blur-3"/>
      <feFlood flood-opacity="0.161"/>
      <feComposite operator="in" in2="blur-3"/>
      <feComposite in="SourceGraphic"/>
    </filter>
  </defs>
  <g id="Group_8" data-name="Group 8" transform="translate(-108 -181)">
    <g transform="matrix(1, 0, 0, 1, 108, 181)" filter="url(#Rectangle_23)">
      <rect id="Rectangle_23-2" data-name="Rectangle 23" width="1332" height="115" rx="20" transform="translate(9 6)" fill="#e8e8e8"/>
    </g>
    <g transform="matrix(1, 0, 0, 1, 108, 181)" filter="url(#Rectangle_24)">
      <rect id="Rectangle_24-2" data-name="Rectangle 24" width="1332" height="57" transform="translate(9 64)" fill="#acbfb1"/>
    </g>
    <g transform="matrix(1, 0, 0, 1, 108, 181)" filter="url(#Rectangle_25)">
      <rect id="Rectangle_25-2" data-name="Rectangle 25" width="1332" height="608" transform="translate(9 121)" fill="#dde6d2"/>
    </g>
    <path id="Rectangle_26" data-name="Rectangle 26" d="M20,0H150a20,20,0,0,1,20,20V48a0,0,0,0,1,0,0H0a0,0,0,0,1,0,0V20A20,20,0,0,1,20,0Z" transform="translate(203 198)" fill="#acbfb1"/>
    <ellipse id="Ellipse_8" data-name="Ellipse 8" cx="5.5" cy="6" rx="5.5" ry="6" transform="translate(135 215)" fill="#9d9d9d"/>
    <ellipse id="Ellipse_9" data-name="Ellipse 9" cx="5.5" cy="6" rx="5.5" ry="6" transform="translate(154 215)" fill="#9d9d9d"/>
    <ellipse id="Ellipse_10" data-name="Ellipse 10" cx="5.5" cy="6" rx="5.5" ry="6" transform="translate(173 215)" fill="#9d9d9d"/>
  </g>
</svg>
