<?xml version="1.0" encoding="utf-8"?>
<!-- Generator: Adobe Illustrator 24.3.0, SVG Export Plug-In . SVG Version: 6.00 Build 0)  -->
<svg version="1.1" id="Layer_1" xmlns="http://www.w3.org/2000/svg" xmlns:xlink="http://www.w3.org/1999/xlink" x="0px" y="0px"
	 viewBox="0 0 1332 723" style="enable-background:new 0 0 1332 723;" xml:space="preserve">
<style type="text/css">
	.st0{fill:#E8E8E8;}
	.st1{fill:#ACBFB1;}
	.st2{fill:#DDE6D2;}
	.st3{fill:#9D9D9D;}
</style>
<g id="Group_8">
	<path id="Rectangle_23-2" class="st0" d="M20,0h1292c11,0,20,9,20,20v75c0,11-9,20-20,20H20c-11,0-20-9-20-20V20C0,9,9,0,20,0z"/>
	<rect id="Rectangle_24-2" y="58" class="st1" width="1332" height="57"/>
	<rect id="Rectangle_25-2" y="115" class="st2" width="1332" height="608"/>
	<path id="Rectangle_26" class="st1" d="M106,11h130c11,0,20,9,20,20v28H86V31C86,20,95,11,106,11z"/>
	<ellipse id="Ellipse_8" class="st3" cx="23.5" cy="34" rx="5.5" ry="6"/>
	<ellipse id="Ellipse_9" class="st3" cx="42.5" cy="34" rx="5.5" ry="6"/>
	<ellipse id="Ellipse_10" class="st3" cx="61.5" cy="34" rx="5.5" ry="6"/>
</g>
</svg>
