<?xml version="1.0" encoding="utf-8"?>
<!-- Generator: Adobe Illustrator 24.3.0, SVG Export Plug-In . SVG Version: 6.00 Build 0)  -->
<svg version="1.1" id="Layer_1" xmlns="http://www.w3.org/2000/svg" xmlns:xlink="http://www.w3.org/1999/xlink" x="0px" y="0px"
	 viewBox="0 0 506 733" style="enable-background:new 0 0 506 733;" xml:space="preserve">
<style type="text/css">
	.st0{fill:#F8F8F8;}
	.st1{fill:#E0E0E0;}
	.st2{font-family:'ProximaNova-Regular';}
	.st3{font-size:15px;}
	.st4{fill:#3E3E3E;}
	.st5{fill:#627166;}
	.st6{fill:#ACBFB1;}
	.st7{fill:#DBBFBF;}
	.st8{fill:#DBD6BF;}
	.st9{fill:#C7DBBF;}
	.st10{fill:#CFE5D0;}
	.st11{fill:#D6D6D6;}
	.st12{fill:#B2B2B2;}
	.st13{fill:#9F9F9F;}
	.st14{fill:#FFFFFF;}
	.st15{fill:#DEDDDD;}
	.st16{fill:#C4C4C4;}
</style>
<path class="st0" d="M0,114h506v604c0,8.3-6.7,15-15,15l0,0H15c-8.3,0-15-6.7-15-15l0,0l0,0V114z"/>
<path class="st1" d="M214.5,252.5h-160C39.9,252.5,28,240.6,28,226v0c0-14.6,11.9-26.5,26.5-26.5h160c14.6,0,26.5,11.9,26.5,26.5v0
	C241,240.6,229.1,252.5,214.5,252.5z"/>
<text transform="matrix(1 0 0 1 57.4802 230.4999)" class="st2 st3">Tell me about yourself.</text>
<path class="st4" d="M20,0h466c11,0,20,9,20,20v74c0,11-9,20-20,20H20c-11,0-20-9-20-20V20C0,9,9,0,20,0z"/>
<rect y="57" class="st5" width="506" height="57"/>
<path class="st6" d="M275,10h129c11,0,20,9,20,20v27H255V30C255,19,264,10,275,10z"/>
<path class="st5" d="M106,11h130c11,0,20,9,20,20v27H86V31C86,20,95,11,106,11z"/>
<circle class="st7" cx="23.5" cy="33.5" r="5.5"/>
<circle class="st8" cx="42.5" cy="33.5" r="5.5"/>
<circle class="st9" cx="61.5" cy="33.5" r="5.5"/>
<circle class="st5" cx="451.5" cy="287.3" r="26.3"/>
<g>
	<path class="st10" d="M201.6,323.5h250.6c14.1,0,25.6,11.5,25.6,25.6l0,0c0,14.1-11.5,25.6-25.6,25.6l0,0H201.6
		c-14.1,0-25.6-11.5-25.6-25.6l0,0l0,0C176,335,187.5,323.5,201.6,323.5z"/>
	<text transform="matrix(1 0 0 1 203.507 353.4383)" class="st2 st3">Hello! My name is Anisa and I am a...</text>
</g>
<path class="st10" d="M135.4,385.9h109.4c14.1,0,25.6,11.5,25.6,25.6l0,0c0,14.1-11.5,25.6-25.6,25.6H135.4
	c-14.1,0-25.6-11.5-25.6-25.6l0,0C109.8,397.4,121.3,385.9,135.4,385.9z"/>
<text transform="matrix(1 0 0 1 137.1859 415.8757)" class="st2 st3">UI/UX designer</text>
<path class="st10" d="M305.7,385.9h146.5c14.1,0,25.6,11.5,25.6,25.6l0,0c0,14.1-11.5,25.6-25.6,25.6H305.7
	c-14.1,0-25.6-11.5-25.6-25.6l0,0C280.1,397.4,291.6,385.9,305.7,385.9z"/>
<text transform="matrix(1 0 0 1 307.4994 415.8757)" class="st2 st3">Front-end developer</text>
<path class="st10" d="M76.2,448.2h114.7c14.1,0,25.6,11.5,25.6,25.6l0,0c0,14.1-11.5,25.6-25.6,25.6H76.2
	c-14.1,0-25.6-11.5-25.6-25.6l0,0C50.6,459.8,62.1,448.2,76.2,448.2z"/>
<text transform="matrix(1 0 0 1 77.9362 478.2979)" class="st2 st3">Creative thinker</text>
<path class="st10" d="M252.4,448.2h49.4c14.1,0,25.6,11.5,25.6,25.6l0,0c0,14.1-11.5,25.6-25.6,25.6l0,0h-49.4
	c-14.1,0-25.6-11.5-25.6-25.6l0,0l0,0C226.8,459.8,238.3,448.2,252.4,448.2z"/>
<text transform="matrix(1 0 0 1 254.1953 478.2984)" class="st2 st3">Writer</text>
<path class="st10" d="M363.1,448.2h89.1c14.1,0,25.6,11.5,25.6,25.6l0,0c0,14.1-11.5,25.6-25.6,25.6l0,0h-89.1
	c-14.1,0-25.6-11.5-25.6-25.6l0,0l0,0C337.5,459.8,349,448.2,363.1,448.2z"/>
<text transform="matrix(1 0 0 1 364.8586 478.2984)" class="st2 st3">Video editor</text>
<path class="st10" d="M112.7,510.8h101.5c14.1,0,25.6,11.5,25.6,25.6l0,0c0,14.1-11.5,25.6-25.6,25.6l0,0H112.7
	c-14.1,0-25.6-11.5-25.6-25.6l0,0l0,0C87.1,522.2,98.6,510.8,112.7,510.8z"/>
<text transform="matrix(1 0 0 1 114.4632 540.7206)" class="st2 st3">Photographer</text>
<path class="st10" d="M275.9,510.8h60.9c14.1,0,25.6,11.5,25.6,25.6l0,0c0,14.1-11.5,25.6-25.6,25.6l0,0h-60.9
	c-14.1,0-25.6-11.5-25.6-25.6l0,0l0,0C250.3,522.2,261.8,510.8,275.9,510.8z"/>
<text transform="matrix(1 0 0 1 277.6426 540.7206)" class="st2 st3">Speaker</text>
<path class="st10" d="M398.4,510.8h53.8c14.1,0,25.6,11.5,25.6,25.6l0,0c0,14.1-11.5,25.6-25.6,25.6l0,0h-53.8
	c-14.1,0-25.6-11.5-25.6-25.6l0,0l0,0C372.8,522.2,384.3,510.8,398.4,510.8z"/>
<path class="st10" d="M404.4,573.2h53.8c14.1,0,25.6,11.5,25.6,25.6l0,0c0,14.1-11.5,25.6-25.6,25.6l0,0h-53.8
	c-14.1,0-25.6-11.5-25.6-25.6l0,0l0,0C378.8,584.7,390.3,573.2,404.4,573.2z"/>
<path class="st10" d="M282.9,573.2h53.8c14.1,0,25.6,11.5,25.6,25.6l0,0c0,14.1-11.5,25.6-25.6,25.6l0,0h-53.8
	c-14.1,0-25.6-11.5-25.6-25.6l0,0l0,0C257.3,584.7,268.8,573.2,282.9,573.2z"/>
<text transform="matrix(1 0 0 1 400.1547 541.603)" class="st2 st3">Mentor</text>
<path class="st10" d="M177.2,573.2h45c14.1,0,25.6,11.5,25.6,25.6l0,0c0,14.1-11.5,25.6-25.6,25.6l0,0h-45
	c-14.1,0-25.6-11.5-25.6-25.6l0,0l0,0C151.6,584.7,163.1,573.2,177.2,573.2z"/>
<text transform="matrix(1 0 0 1 179.8364 604.0252)" class="st2 st3">Baker</text>
<text transform="matrix(1 0 0 1 284.5555 604.0252)" class="st2 st3">Explorer</text>
<text transform="matrix(1 0 0 1 406.3341 604.0252)" class="st2 st3">Friend</text>
<path class="st11" d="M143.5,645h325c11.3,0,20.5,9.2,20.5,20.5l0,0c0,11.3-9.2,20.5-20.5,20.5l0,0h-325c-11.3,0-20.5-9.2-20.5-20.5
	l0,0l0,0C123,654.2,132.2,645,143.5,645z"/>
<circle class="st12" cx="48.5" cy="665.5" r="20.5"/>
<circle class="st13" cx="95.5" cy="665.5" r="20.5"/>
<ellipse class="st12" cx="54.5" cy="162.5" rx="26.5" ry="26"/>
<g>
	<path class="st14" d="M458.6,671.8l-14-14.5l4.2,17L458.6,671.8z"/>
	<path class="st15" d="M458.5,671.9l1.2,3.9l0.5-5l-15.6-13.7L458.5,671.9z"/>
	<path class="st14" d="M444.4,657l15.8,13.8l6.8-2.6L444.4,657z"/>
	<path class="st16" d="M459.7,675.7l-3.6-3.3l2.5-0.6"/>
</g>
</svg>
