<?xml version="1.0" encoding="utf-8"?>
<!-- Generator: Adobe Illustrator 25.4.1, SVG Export Plug-In . SVG Version: 6.00 Build 0)  -->
<svg version="1.1" id="Layer_1" xmlns="http://www.w3.org/2000/svg" xmlns:xlink="http://www.w3.org/1999/xlink" x="0px" y="0px"
	 viewBox="0 0 853 547" style="enable-background:new 0 0 853 547;" xml:space="preserve">
<style type="text/css">
	.st0{fill:#F8F8F8;}
	.st1{fill:#B2B2B2;}
	.st2{fill:#E0E0E0;}
	.st3{font-family:'ProximaNova-Regular';}
	.st4{font-size:17px;}
	.st5{fill:#3E3E3E;}
	.st6{fill:#627166;}
	.st7{fill:#ACBFB1;}
	.st8{fill:#DBBFBF;}
	.st9{fill:#DBD6BF;}
	.st10{fill:#C7DBBF;}
	.st11{fill:#CFE5D0;}
	.st12{fill:#D6D6D6;}
	.st13{fill:#FFFFFF;}
	.st14{fill:#DEDDDD;}
	.st15{fill:#C4C4C4;}
	.st16{fill:#9F9F9F;}
</style>
<rect id="Rectangle_17-2" y="114" class="st0" width="853" height="433"/>
<circle id="asker_bubble" class="st1" cx="81" cy="185" r="29"/>
<path id="Rectangle_4" class="st2" d="M159,156h177c16,0,29,13,29,29l0,0c0,16-13,29-29,29H159c-16,0-29-13-29-29l0,0
	C130,169,143,156,159,156z"/>
<text transform="matrix(1 0 0 1 162 190)" class="st3 st4">Tell me about yourself.</text>
<path id="browser" class="st5" d="M17,0h819c9.3,0,17,9,17,20v74c0,11-7.6,20-17,20H17c-9.3,0-17-9-17-20V20C0,9,7.6,0,17,0z"/>
<rect id="browser_below" y="57" class="st6" width="853" height="57"/>
<path id="browser_tab_1" class="st6" d="M106,11h130c11,0,20,9,20,20v27H86V31C86,20,95,11,106,11z"/>
<path id="browser_tab_2" class="st7" d="M276,11h129c11,0,20,9,20,20v27H256V31C256,20,265,11,276,11z"/>
<circle id="browser_button_1" class="st8" cx="23.5" cy="33.5" r="5.5"/>
<circle id="browser_button_2" class="st9" cx="42.5" cy="33.5" r="5.5"/>
<circle id="browser_button_3" class="st10" cx="61.5" cy="33.5" r="5.5"/>
<path id="Rectangle_5" class="st11" d="M410,233h284c16,0,29,13,29,29l0,0c0,16-13,29-29,29l0,0H410c-16,0-29-13-29-29l0,0l0,0
	C381,246,394,233,410,233z"/>
<text transform="matrix(1 0 0 1 412 267)" class="st3 st4">Hello! My name is Anisa and I am a...</text>
<path id="Rectangle_6" class="st11" d="M335,301h124c16,0,29,13,29,29l0,0c0,16-13,29-29,29H335c-16,0-29-13-29-29l0,0
	C306,314,319,301,335,301z"/>
<text transform="matrix(1 0 0 1 337 335)" class="st3 st4">UI/UX designer</text>
<path id="Rectangle_7" class="st11" d="M528,301h166c16,0,29,13,29,29l0,0c0,16-13,29-29,29H528c-16,0-29-13-29-29l0,0
	C499,314,512,301,528,301z"/>
<text transform="matrix(1 0 0 1 530 335)" class="st3 st4">Front-end developer</text>
<path id="Rectangle_8" class="st11" d="M297.2,369H404c13.2,0,23.8,13,23.8,29l0,0c0,16-10.7,29-23.8,29H297.2
	c-13.2,0-23.8-13-23.8-29l0,0C273.4,382,284,369,297.2,369z"/>
<text transform="matrix(1 0 0 1 304.3645 403)" class="st3 st4">Digital artist</text>
<path id="Rectangle_9" class="st11" d="M468,369h56c16,0,29,13,29,29l0,0c0,16-13,29-29,29l0,0h-56c-16,0-29-13-29-29l0,0l0,0
	C439,382,452,369,468,369z"/>
<text transform="matrix(1 0 0 1 470 403)" class="st3 st4">Writer</text>
<path id="Rectangle_11" class="st11" d="M593,369h101c16,0,29,13,29,29l0,0c0,16-13,29-29,29l0,0H593c-16,0-29-13-29-29l0,0l0,0
	C564,382,577,369,593,369z"/>
<text transform="matrix(1 0 0 1 595 403)" class="st3 st4">Video editor</text>
<circle class="st6" cx="773" cy="262" r="29"/>
<path class="st12" d="M781.5,505h-606c-11.3,0-20.5-9.2-20.5-20.5l0,0c0-11.3,9.2-20.5,20.5-20.5h606c11.3,0,20.5,9.2,20.5,20.5l0,0
	C802,495.8,792.8,505,781.5,505z"/>
<g id="Group_1">
	<path id="Path_6" class="st13" d="M773.4,490.7l-14-14.5l4.2,17L773.4,490.7z"/>
	<path id="Path_8" class="st14" d="M773.3,490.9l1.2,3.9l0.5-5l-15.7-13.7L773.3,490.9z"/>
	<path id="Path_7" class="st13" d="M759.2,476l15.8,13.8l6.8-2.6L759.2,476z"/>
	<path id="Path_9" class="st15" d="M774.5,494.7l-3.6-3.3l2.4-0.6"/>
</g>
<circle id="Ellipse_4" class="st1" cx="72.5" cy="484.5" r="20.5"/>
<circle id="Ellipse_5" class="st16" cx="124.5" cy="484.5" r="20.5"/>
<rect x="155" y="464" class="st12" width="647" height="41"/>
</svg>
