<?xml version="1.0" encoding="utf-8"?>
<!-- Generator: Adobe Illustrator 25.4.1, SVG Export Plug-In . SVG Version: 6.00 Build 0)  -->
<svg version="1.1" id="Layer_1" xmlns="http://www.w3.org/2000/svg" xmlns:xlink="http://www.w3.org/1999/xlink" x="0px" y="0px"
	 viewBox="0 0 506 622" style="enable-background:new 0 0 506 622;" xml:space="preserve">
<style type="text/css">
	.st0{fill:#F8F8F8;}
	.st1{fill:#E0E0E0;}
	.st2{font-family:'ProximaNova-Regular';}
	.st3{font-size:15px;}
	.st4{fill:#3E3E3E;}
	.st5{fill:#627166;}
	.st6{fill:#ACBFB1;}
	.st7{fill:#DBBFBF;}
	.st8{fill:#DBD6BF;}
	.st9{fill:#C7DBBF;}
	.st10{fill:#CFE5D0;}
	.st11{fill:#D6D6D6;}
	.st12{fill:#B2B2B2;}
	.st13{fill:#9F9F9F;}
	.st14{fill:#FFFFFF;}
	.st15{fill:#DEDDDD;}
	.st16{fill:#C4C4C4;}
</style>
<path class="st0" d="M0,114h506v495.7c0,6.8-6.7,12.3-15,12.3l0,0H15c-8.3,0-15-5.5-15-12.3l0,0l0,0V114z"/>
<path class="st1" d="M214.5,252.5h-160C39.9,252.5,28,240.6,28,226l0,0c0-14.6,11.9-26.5,26.5-26.5h160c14.6,0,26.5,11.9,26.5,26.5
	l0,0C241,240.6,229.1,252.5,214.5,252.5z"/>
<text transform="matrix(1 0 0 1 57.4802 230.4999)" class="st2 st3">Tell me about yourself.</text>
<path class="st4" d="M20,0h466c11,0,20,9,20,20v74c0,11-9,20-20,20H20c-11,0-20-9-20-20V20C0,9,9,0,20,0z"/>
<rect y="57" class="st5" width="506" height="57"/>
<path class="st6" d="M275,10h129c11,0,20,9,20,20v27H255V30C255,19,264,10,275,10z"/>
<path class="st5" d="M106,11h130c11,0,20,9,20,20v27H86V31C86,20,95,11,106,11z"/>
<circle class="st7" cx="23.5" cy="33.5" r="5.5"/>
<circle class="st8" cx="42.5" cy="33.5" r="5.5"/>
<circle class="st9" cx="61.5" cy="33.5" r="5.5"/>
<circle class="st5" cx="451.5" cy="287.3" r="26.3"/>
<g>
	<path class="st10" d="M201.6,323.5h250.6c14.1,0,25.6,11.5,25.6,25.6l0,0c0,14.1-11.5,25.6-25.6,25.6l0,0H201.6
		c-14.1,0-25.6-11.5-25.6-25.6l0,0l0,0C176,335,187.5,323.5,201.6,323.5z"/>
	<text transform="matrix(1 0 0 1 203.507 353.4383)" class="st2 st3">Hello! My name is Anisa and I am a...</text>
</g>
<path class="st10" d="M135.4,385.9h109.4c14.1,0,25.6,11.5,25.6,25.6l0,0c0,14.1-11.5,25.6-25.6,25.6H135.4
	c-14.1,0-25.6-11.5-25.6-25.6l0,0C109.8,397.4,121.3,385.9,135.4,385.9z"/>
<text transform="matrix(1 0 0 1 137.1859 415.8757)" class="st2 st3">UI/UX designer</text>
<path class="st10" d="M305.7,385.9h146.5c14.1,0,25.6,11.5,25.6,25.6l0,0c0,14.1-11.5,25.6-25.6,25.6H305.7
	c-14.1,0-25.6-11.5-25.6-25.6l0,0C280.1,397.4,291.6,385.9,305.7,385.9z"/>
<text transform="matrix(1 0 0 1 307.4994 415.8757)" class="st2 st3">Front-end developer</text>
<path class="st10" d="M98.2,448.2h96.4c11.8,0,21.5,11.5,21.5,25.6l0,0c0,14.1-9.7,25.6-21.5,25.6H98.2c-11.8,0-21.5-11.5-21.5-25.6
	l0,0C76.7,459.8,86.4,448.2,98.2,448.2z"/>
<text transform="matrix(1 0 0 1 104.0473 478.2979)" class="st2 st3">Digital artist</text>
<path class="st10" d="M252,448.2h49.4c14.1,0,25.6,11.5,25.6,25.6l0,0c0,14.1-11.5,25.6-25.6,25.6l0,0H252
	c-14.1,0-25.6-11.5-25.6-25.6l0,0l0,0C226.4,459.8,237.9,448.2,252,448.2z"/>
<text transform="matrix(1 0 0 1 253.8063 478.2984)" class="st2 st3">Writer</text>
<g>
	<path class="st10" d="M363.1,448.2h89.1c14.1,0,25.6,11.5,25.6,25.6l0,0c0,14.1-11.5,25.6-25.6,25.6l0,0h-89.1
		c-14.1,0-25.6-11.5-25.6-25.6l0,0l0,0C337.5,459.8,349,448.2,363.1,448.2z"/>
	<text transform="matrix(1 0 0 1 364.8586 478.2984)" class="st2 st3">Video editor</text>
</g>
<path class="st11" d="M143.5,534h325c11.3,0,20.5,9.2,20.5,20.5l0,0c0,11.3-9.2,20.5-20.5,20.5l0,0h-325c-11.3,0-20.5-9.2-20.5-20.5
	l0,0l0,0C123,543.2,132.2,534,143.5,534z"/>
<circle class="st12" cx="48.5" cy="554.5" r="20.5"/>
<circle class="st13" cx="95.5" cy="554.5" r="20.5"/>
<ellipse class="st12" cx="54.5" cy="162.5" rx="26.5" ry="26"/>
<g>
	<path class="st14" d="M458.6,560.8l-14-14.5l4.2,17L458.6,560.8z"/>
	<path class="st15" d="M458.5,560.9l1.2,3.9l0.5-5l-15.6-13.7L458.5,560.9z"/>
	<path class="st14" d="M444.4,546l15.8,13.8l6.8-2.6L444.4,546z"/>
	<path class="st16" d="M459.7,564.7l-3.6-3.3l2.5-0.6"/>
</g>
</svg>
