<svg id="Layer_1" data-name="Layer 1" xmlns="http://www.w3.org/2000/svg" viewBox="0 0 825.01 825"><title>linkedin</title><path d="M324.92-87.75H641.39c46.15,0,83.8,30,93.79,75a88.64,88.64,0,0,1,2,19q.14,318.52.05,637.05a94.39,94.39,0,0,1-80.5,93,101.28,101.28,0,0,1-14.57.93q-317.4.06-634.8,0c-47.34,0-86.51-33.37-94.07-80.13a92.07,92.07,0,0,1-1-14.56q-.06-317.79,0-635.56c0-47.07,33.46-86.19,80.13-93.7a102.42,102.42,0,0,1,16.06-1Q166.7-87.79,324.92-87.75Zm-.39,750H641.39c13.68,0,20.86-7.12,20.86-20.7V8.21c0-13.88-7.09-21-21-21H8.3c-13.95,0-21,7.05-21,20.89V641.48c0,13.6,7.18,20.77,20.8,20.77Z" transform="translate(87.75 87.75)"/><path d="M243.06,231.2H348.11v4c0,13.87,0,27.74.05,41.62a12.19,12.19,0,0,0,.95,3.26c.9-.7,2.08-1.23,2.64-2.14,19.28-31.59,48-48.77,84.05-53.69,27.88-3.81,55.4-1.27,81.73,9.18,29.49,11.7,47.55,34.11,57.66,63.55a204.62,204.62,0,0,1,11.1,64.69c.73,74.61.69,149.22.94,223.83,0,.38-.06.75-.13,1.41h-110V582.6c0-61.24.06-122.49-.12-183.73,0-15.12-1.25-30.19-6.28-44.66-6.73-19.36-19.95-30.91-40.55-33.39-13.57-1.63-26.92-.78-39.74,4.45-14.68,6-24,17.08-29.63,31.52a109.41,109.41,0,0,0-7.37,39.55C353,458.21,353,520.08,352.91,582v5H243.06Z" transform="translate(87.75 87.75)"/><path d="M173.22,587.13H62.51V231.23H173.22Z" transform="translate(87.75 87.75)"/><path d="M116.25,51.75a64.54,64.54,0,0,1,64.41,64.33c.12,35.39-29.2,64.7-64.61,64.59a64.46,64.46,0,0,1,.2-128.92Z" transform="translate(87.75 87.75)"/></svg>